<?xml version="1.0" encoding="UTF-8"?>
<!DOCTYPE svg PUBLIC "-//W3C//DTD SVG 1.1//EN" "http://www.w3.org/Graphics/SVG/1.1/DTD/svg11.dtd">
<!-- Creator: CorelDRAW 2019 (64-Bit) -->
<svg xmlns="http://www.w3.org/2000/svg" xml:space="preserve" width="9.079in" height="1.694in" version="1.1" style="shape-rendering:geometricPrecision; text-rendering:geometricPrecision; image-rendering:optimizeQuality; fill-rule:evenodd; clip-rule:evenodd"
viewBox="0 0 9079 1694"
 xmlns:xlink="http://www.w3.org/1999/xlink"
 xmlns:xodm="http://www.corel.com/coreldraw/odm/2003">
 <defs>
  <style type="text/css">
   <![CDATA[
    .fil2 {fill:#3C3D3D}
    .fil3 {fill:#003D7F}
    .fil4 {fill:#00A89F}
    .fil1 {fill:#003D7F;fill-rule:nonzero}
    .fil0 {fill:#00A89F;fill-rule:nonzero}
   ]]>
  </style>
 </defs>
 <g id="Layer_x0020_1">
  <metadata id="CorelCorpID_0Corel-Layer"/>
  <g id="_2165949218144">
   <path class="fil0" d="M2284.98 1031.57c-75.73,0 -134.67,-20.95 -176.83,-62.85 -42.15,-41.9 -63.23,-101.73 -63.23,-179.48l0 -296.86 122.68 0 0 292.31c0,94.91 39.38,142.37 118.14,142.37 38.37,0 67.65,-11.49 87.84,-34.46 20.2,-22.97 30.29,-58.94 30.29,-107.91l0 -292.31 121.17 0 0 296.86c0,77.75 -21.08,137.57 -63.24,179.48 -42.15,41.91 -101.1,62.85 -176.83,62.85zm698.98 -9.09l-102.24 -147.67 -6.06 0 -106.78 0 0 147.67 -122.68 0 0 -530.1 229.46 0c46.95,0 87.72,7.83 122.3,23.48 34.58,15.65 61.22,37.87 79.89,66.64 18.68,28.78 28.02,62.85 28.02,102.23 0,39.38 -9.46,73.33 -28.4,101.86 -18.93,28.52 -45.81,50.36 -80.65,65.5l118.89 170.39 -131.77 0zm-2.27 -337.75c0,-29.78 -9.59,-52.63 -28.78,-68.53 -19.19,-15.91 -47.2,-23.85 -84.06,-23.85l-99.96 0 0 184.78 99.96 0c36.85,0 64.87,-8.07 84.06,-24.23 19.19,-16.15 28.78,-38.87 28.78,-68.16zm610.37 62.1c30.29,9.59 54.02,25.62 71.19,48.09 17.16,22.46 25.74,50.11 25.74,82.92 0,46.44 -18.05,82.17 -54.15,107.16 -36.09,24.99 -88.73,37.48 -157.89,37.48l-274.14 0 0 -530.1 258.99 0c64.62,0 114.22,12.37 148.81,37.11 34.58,24.74 51.87,58.31 51.87,100.72 0,25.75 -6.19,48.72 -18.55,68.91 -12.37,20.19 -29.66,36.1 -51.87,47.71zm-267.32 -162.06l0 124.95 121.92 0c30.29,0 53.26,-5.3 68.91,-15.9 15.65,-10.6 23.48,-26.26 23.48,-46.95 0,-20.7 -7.83,-36.22 -23.48,-46.57 -15.65,-10.35 -38.62,-15.52 -68.91,-15.52l-121.92 0zm143.13 345.32c32.31,0 56.67,-5.3 73.08,-15.9 16.41,-10.6 24.61,-27.01 24.61,-49.22 0,-43.92 -32.56,-65.89 -97.69,-65.89l-143.13 0 0 131.01 143.13 0zm663.39 -21.2l-246.12 0 -46.95 113.59 -125.71 0 236.27 -530.1 121.17 0 237.03 530.1 -128.74 0 -46.95 -113.59zm-38.62 -93.15l-84.06 -202.95 -84.06 202.95 168.12 0zm755.77 -323.36l0 530.1 -100.72 0 -264.3 -321.85 0 321.85 -121.17 0 0 -530.1 101.48 0 263.54 321.85 0 -321.85 121.17 0z"/>
   <path class="fil1" d="M5197.52 492.39c68.66,0 122.68,16.41 162.06,49.22 39.38,32.81 59.07,78 59.07,135.56 0,57.56 -19.69,102.74 -59.07,135.56 -39.38,32.81 -93.4,49.22 -162.06,49.22l-131.01 0 0 160.54 -75.73 0 0 -530.1 206.74 0zm-2.27 303.67c47.96,0 84.56,-10.22 109.81,-30.67 25.24,-20.45 37.86,-49.85 37.86,-88.22 0,-38.37 -12.62,-67.78 -37.86,-88.22 -25.24,-20.44 -61.85,-30.67 -109.81,-30.67l-128.74 0 0 237.79 128.74 0zm689.13 226.43l-114.35 -162.81c-14.13,1.01 -25.24,1.51 -33.32,1.51l-131.01 0 0 161.3 -75.73 0 0 -530.1 206.74 0c68.66,0 122.68,16.41 162.06,49.22 39.38,32.81 59.07,78 59.07,135.56 0,40.89 -10.1,75.73 -30.29,104.5 -20.19,28.78 -48.97,49.73 -86.33,62.86l125.71 177.96 -82.54 0zm-149.94 -225.67c47.96,0 84.56,-10.35 109.81,-31.05 25.24,-20.7 37.86,-50.23 37.86,-88.6 0,-38.37 -12.62,-67.78 -37.86,-88.22 -25.24,-20.44 -61.85,-30.67 -109.81,-30.67l-128.74 0 0 238.54 128.74 0zm585.38 231.73c-53.52,0 -101.73,-11.74 -144.64,-35.22 -42.91,-23.47 -76.61,-55.91 -101.1,-97.31 -24.48,-41.4 -36.73,-87.59 -36.73,-138.58 0,-50.99 12.24,-97.19 36.73,-138.58 24.48,-41.4 58.19,-73.83 101.1,-97.31 42.91,-23.48 91.13,-35.22 144.64,-35.22 53.01,0 100.97,11.74 143.88,35.22 42.91,23.48 76.49,55.79 100.72,96.93 24.23,41.15 36.35,87.46 36.35,138.96 0,51.5 -12.12,97.81 -36.35,138.96 -24.23,41.15 -57.81,73.46 -100.72,96.93 -42.91,23.48 -90.87,35.22 -143.88,35.22zm0 -67.4c38.87,0 73.83,-8.84 104.88,-26.51 31.05,-17.67 55.54,-42.03 73.46,-73.08 17.93,-31.05 26.89,-65.76 26.89,-104.13 0,-38.37 -8.96,-73.08 -26.89,-104.13 -17.92,-31.05 -42.41,-55.41 -73.46,-73.08 -31.05,-17.67 -66.01,-26.5 -104.88,-26.5 -38.87,0 -74.09,8.83 -105.64,26.5 -31.56,17.67 -56.29,42.03 -74.22,73.08 -17.92,31.05 -26.88,65.76 -26.88,104.13 0,38.37 8.96,73.08 26.88,104.13 17.93,31.05 42.66,55.41 74.22,73.08 31.55,17.67 66.77,26.51 105.64,26.51zm453.61 67.4c-31.8,0 -61.34,-6.69 -88.6,-20.07 -27.26,-13.38 -49.22,-32.19 -65.88,-56.42l43.92 -51.5c29.28,41.91 66.14,62.86 110.56,62.86 29.79,0 52.38,-9.09 67.78,-27.26 15.4,-18.17 23.1,-44.93 23.1,-80.27l0 -297.61 -191.59 0 0 -65.89 266.56 0 0 359.71c0,58.56 -14.01,102.61 -42.03,132.15 -28.02,29.54 -69.29,44.3 -123.82,44.3zm705.04 -71.94l0 65.89 -384.7 0 0 -530.1 374.1 0 0 65.89 -298.37 0 0 162.81 265.81 0 0 64.37 -265.81 0 0 171.15 308.97 0zm357.44 71.94c-53.01,0 -100.85,-11.74 -143.51,-35.22 -42.66,-23.47 -76.11,-55.78 -100.34,-96.93 -24.24,-41.15 -36.35,-87.47 -36.35,-138.96 0,-51.5 12.11,-97.81 36.35,-138.96 24.23,-41.15 57.8,-73.46 100.72,-96.93 42.91,-23.48 90.87,-35.22 143.89,-35.22 41.4,0 79.26,6.94 113.59,20.83 34.33,13.89 63.61,34.46 87.84,61.72l-49.22 47.71c-39.89,-41.91 -89.61,-62.85 -149.19,-62.85 -39.38,0 -74.97,8.83 -106.78,26.5 -31.81,17.67 -56.67,42.03 -74.59,73.08 -17.92,31.05 -26.88,65.76 -26.88,104.13 0,38.37 8.96,73.08 26.88,104.13 17.93,31.05 42.79,55.41 74.59,73.08 31.81,17.67 67.4,26.51 106.78,26.51 59.07,0 108.8,-21.2 149.19,-63.61l49.22 47.71c-24.23,27.26 -53.64,47.96 -88.22,62.1 -34.58,14.14 -72.57,21.2 -113.97,21.2zm409.69 -470.28l-181.75 0 0 -65.89 438.47 0 0 65.89 -181.75 0 0 464.22 -74.97 0 0 -464.22zm486.93 470.28c-39.88,0 -78.38,-6.19 -115.48,-18.56 -37.11,-12.37 -66.26,-28.4 -87.47,-48.09l28.02 -59.07c20.2,18.17 46.07,32.94 77.62,44.3 31.56,11.36 63.99,17.04 97.31,17.04 43.93,0 76.74,-7.44 98.45,-22.34 21.71,-14.89 32.56,-34.71 32.56,-59.45 0,-18.17 -5.93,-32.94 -17.8,-44.3 -11.87,-11.36 -26.5,-20.07 -43.92,-26.13 -17.42,-6.06 -42.03,-12.87 -73.84,-20.44 -39.88,-9.59 -72.07,-19.19 -96.55,-28.78 -24.49,-9.59 -45.44,-24.36 -62.86,-44.3 -17.42,-19.94 -26.13,-46.83 -26.13,-80.65 0,-28.27 7.45,-53.77 22.34,-76.49 14.89,-22.72 37.48,-40.89 67.78,-54.52 30.29,-13.63 67.91,-20.45 112.83,-20.45 31.3,0 62.1,4.04 92.39,12.12 30.29,8.08 56.29,19.69 78,34.83l-24.99 60.58c-22.21,-14.13 -45.94,-24.86 -71.19,-32.19 -25.24,-7.32 -49.98,-10.98 -74.22,-10.98 -42.91,0 -75.09,7.83 -96.55,23.48 -21.46,15.65 -32.19,35.85 -32.19,60.58 0,18.18 6.06,32.94 18.17,44.3 12.12,11.36 27.14,20.19 45.06,26.5 17.92,6.31 42.28,13 73.08,20.07 39.88,9.59 71.94,19.19 96.18,28.78 24.23,9.59 45.06,24.23 62.47,43.92 17.42,19.69 26.13,46.2 26.13,79.52 0,27.77 -7.57,53.14 -22.72,76.11 -15.15,22.97 -38.12,41.15 -68.91,54.53 -30.8,13.38 -68.66,20.07 -113.59,20.07z"/>
  </g>
  <g id="_2165949216992">
   <path class="fil1" d="M2183.29 1231.5l-93.25 0 -19.3 43.52 -25.82 0 79.46 -174.1 24.82 0 79.71 174.1 -26.32 0 -19.31 -43.52zm-8.77 -19.9l-37.85 -85.31 -37.85 85.31 75.7 0zm147.4 -69.64c12.87,0 24.4,2.82 34.59,8.46 10.19,5.64 18.17,13.52 23.94,23.63 5.77,10.11 8.65,21.8 8.65,35.07 0,13.26 -2.88,25 -8.65,35.19 -5.76,10.2 -13.74,18.11 -23.94,23.75 -10.2,5.64 -21.73,8.46 -34.59,8.46 -9.86,0 -18.89,-1.91 -27.07,-5.72 -8.19,-3.81 -14.96,-9.37 -20.3,-16.67l0 20.89 -23.06 0 0 -184.54 24.06 0 0 72.62c5.35,-6.96 12.04,-12.23 20.06,-15.79 8.02,-3.57 16.8,-5.35 26.32,-5.35zm-2 113.67c8.52,0 16.17,-1.95 22.93,-5.85 6.77,-3.9 12.12,-9.37 16.04,-16.41 3.93,-7.05 5.89,-15.13 5.89,-24.25 0,-9.12 -1.96,-17.2 -5.89,-24.25 -3.92,-7.05 -9.27,-12.48 -16.04,-16.29 -6.76,-3.81 -14.41,-5.72 -22.93,-5.72 -8.36,0 -15.96,1.91 -22.81,5.72 -6.85,3.81 -12.2,9.24 -16.04,16.29 -3.84,7.05 -5.77,15.13 -5.77,24.25 0,9.12 1.93,17.2 5.77,24.25 3.84,7.04 9.19,12.52 16.04,16.41 6.85,3.9 14.45,5.85 22.81,5.85zm227.86 -165.15l0 184.54 -23.06 0 0 -20.89c-5.35,7.3 -12.11,12.85 -20.31,16.67 -8.19,3.81 -17.21,5.72 -27.07,5.72 -12.87,0 -24.4,-2.82 -34.59,-8.46 -10.19,-5.64 -18.17,-13.56 -23.94,-23.75 -5.76,-10.2 -8.65,-21.93 -8.65,-35.19 0,-13.26 2.89,-24.95 8.65,-35.07 5.77,-10.11 13.75,-17.99 23.94,-23.63 10.19,-5.64 21.72,-8.46 34.59,-8.46 9.52,0 18.3,1.78 26.32,5.35 8.02,3.56 14.7,8.83 20.06,15.79l0 -72.62 24.06 0zm-68.43 165.15c8.35,0 15.96,-1.95 22.81,-5.85 6.85,-3.9 12.2,-9.37 16.04,-16.41 3.84,-7.05 5.76,-15.13 5.76,-24.25 0,-9.12 -1.93,-17.2 -5.76,-24.25 -3.85,-7.05 -9.19,-12.48 -16.04,-16.29 -6.85,-3.81 -14.46,-5.72 -22.81,-5.72 -8.52,0 -16.17,1.91 -22.94,5.72 -6.77,3.81 -12.12,9.24 -16.04,16.29 -3.93,7.05 -5.89,15.13 -5.89,24.25 0,9.12 1.96,17.2 5.89,24.25 3.93,7.04 9.28,12.52 16.04,16.41 6.76,3.9 14.41,5.85 22.94,5.85zm237.89 -112.42l0 131.82 -22.81 0 0 -19.9c-4.85,6.8 -11.24,12.06 -19.17,15.8 -7.94,3.73 -16.59,5.59 -25.95,5.59 -17.71,0 -31.67,-4.85 -41.86,-14.55 -10.19,-9.7 -15.29,-24 -15.29,-42.9l0 -75.86 24.06 0 0 73.12c0,12.77 3.1,22.43 9.28,28.98 6.18,6.55 15.04,9.82 26.57,9.82 12.7,0 22.73,-3.81 30.08,-11.44 7.35,-7.63 11.03,-18.41 11.03,-32.33l0 -68.15 24.06 0zm45.87 -52.72l24.06 0 0 184.54 -24.06 0 0 -184.54zm258.19 184.54l-37.85 -53.47c-4.68,0.33 -8.36,0.5 -11.03,0.5l-43.37 0 0 52.98 -25.07 0 0 -174.1 68.43 0c22.73,0 40.61,5.39 53.65,16.17 13.04,10.78 19.56,25.62 19.56,44.52 0,13.43 -3.34,24.87 -10.03,34.32 -6.69,9.45 -16.21,16.33 -28.58,20.64l41.61 58.45 -27.33 0zm-49.63 -74.12c15.87,0 27.99,-3.4 36.35,-10.2 8.35,-6.8 12.54,-16.5 12.54,-29.1 0,-12.6 -4.18,-22.26 -12.54,-28.98 -8.36,-6.71 -20.47,-10.07 -36.35,-10.07l-42.62 0 0 78.34 42.62 0zm158.17 -58.94c18.38,0 32.46,4.48 42.24,13.43 9.78,8.95 14.66,22.3 14.66,40.04l0 79.59 -22.81 0 0 -17.41c-4.01,6.13 -9.74,10.82 -17.18,14.05 -7.43,3.23 -16.25,4.85 -26.44,4.85 -14.88,0 -26.78,-3.56 -35.72,-10.69 -8.94,-7.13 -13.41,-16.5 -13.41,-28.11 0,-11.61 4.26,-20.93 12.78,-27.98 8.52,-7.05 22.06,-10.57 40.61,-10.57l38.11 0 0 -4.72c0,-10.28 -3.01,-18.16 -9.02,-23.63 -6.02,-5.47 -14.87,-8.21 -26.57,-8.21 -7.85,0 -15.54,1.28 -23.06,3.85 -7.52,2.57 -13.87,6.01 -19.05,10.32l-10.03 -17.91c6.85,-5.47 15.04,-9.66 24.57,-12.56 9.53,-2.9 19.64,-4.35 30.33,-4.35zm-5.52 116.15c9.19,0 17.13,-2.03 23.81,-6.09 6.69,-4.06 11.53,-9.82 14.54,-17.28l0 -18.41 -37.1 0c-20.39,0 -30.58,6.8 -30.58,20.39 0,6.63 2.59,11.86 7.77,15.67 5.18,3.81 12.37,5.72 21.56,5.72zm177.98 -116.15c16.87,0 30.29,4.85 40.23,14.55 9.94,9.7 14.92,23.92 14.92,42.65l0 75.86 -24.07 0 0 -73.12c0,-12.77 -3.09,-22.38 -9.27,-28.85 -6.19,-6.46 -15.04,-9.7 -26.57,-9.7 -13.04,0 -23.31,3.77 -30.83,11.32 -7.52,7.54 -11.28,18.36 -11.28,32.46l0 67.9 -24.06 0 0 -184.54 24.06 0 0 71.38c5.02,-6.3 11.57,-11.19 19.68,-14.67 8.11,-3.48 17.18,-5.22 27.2,-5.22zm265.96 0c16.71,0 29.96,4.81 39.73,14.43 9.78,9.62 14.67,23.88 14.67,42.78l0 75.86 -24.07 0 0 -73.12c0,-12.77 -2.96,-22.38 -8.9,-28.85 -5.93,-6.46 -14.41,-9.7 -25.44,-9.7 -12.2,0 -21.89,3.77 -29.08,11.32 -7.19,7.54 -10.78,18.36 -10.78,32.46l0 67.9 -24.06 0 0 -73.12c0,-12.77 -2.97,-22.38 -8.9,-28.85 -5.93,-6.46 -14.41,-9.7 -25.44,-9.7 -12.2,0 -21.89,3.77 -29.08,11.32 -7.19,7.54 -10.78,18.36 -10.78,32.46l0 67.9 -24.06 0 0 -131.82 23.06 0 0 19.65c4.84,-6.8 11.19,-11.98 19.05,-15.54 7.85,-3.57 16.8,-5.35 26.82,-5.35 10.36,0 19.55,2.07 27.57,6.22 8.02,4.15 14.21,10.2 18.55,18.15 5.02,-7.63 11.99,-13.59 20.93,-17.91 8.94,-4.31 19.01,-6.47 30.2,-6.47zm147.15 0c18.39,0 32.46,4.48 42.24,13.43 9.78,8.95 14.66,22.3 14.66,40.04l0 79.59 -22.81 0 0 -17.41c-4.01,6.13 -9.74,10.82 -17.17,14.05 -7.44,3.23 -16.25,4.85 -26.44,4.85 -14.87,0 -26.78,-3.56 -35.72,-10.69 -8.94,-7.13 -13.41,-16.5 -13.41,-28.11 0,-11.61 4.26,-20.93 12.78,-27.98 8.52,-7.05 22.06,-10.57 40.61,-10.57l38.1 0 0 -4.72c0,-10.28 -3.01,-18.16 -9.02,-23.63 -6.02,-5.47 -14.88,-8.21 -26.57,-8.21 -7.85,0 -15.54,1.28 -23.06,3.85 -7.52,2.57 -13.87,6.01 -19.05,10.32l-10.03 -17.91c6.85,-5.47 15.04,-9.66 24.57,-12.56 9.53,-2.9 19.64,-4.35 30.33,-4.35zm-5.52 116.15c9.19,0 17.13,-2.03 23.82,-6.09 6.68,-4.06 11.53,-9.82 14.54,-17.28l0 -18.41 -37.1 0c-20.39,0 -30.58,6.8 -30.58,20.39 0,6.63 2.59,11.86 7.77,15.67 5.19,3.81 12.37,5.72 21.56,5.72zm177.98 -116.15c16.87,0 30.29,4.85 40.23,14.55 9.94,9.7 14.91,23.92 14.91,42.65l0 75.86 -24.06 0 0 -73.12c0,-12.77 -3.09,-22.38 -9.28,-28.85 -6.19,-6.46 -15.04,-9.7 -26.57,-9.7 -13.04,0 -23.31,3.77 -30.83,11.32 -7.52,7.54 -11.28,18.36 -11.28,32.46l0 67.9 -24.06 0 0 -131.82 23.06 0 0 19.9c4.84,-6.8 11.4,-12.02 19.68,-15.67 8.27,-3.65 17.67,-5.47 28.2,-5.47zm333.39 133.06l-0.25 -126.84 -63.42 105.7 -11.53 0 -63.42 -104.96 0 126.1 -24.07 0 0 -174.1 20.56 0 73.2 122.37 72.2 -122.37 20.55 0 0.25 174.1 -24.07 0zm197.03 -131.82l0 131.82 -22.81 0 0 -19.9c-4.84,6.8 -11.24,12.06 -19.17,15.8 -7.94,3.73 -16.59,5.59 -25.94,5.59 -17.72,0 -31.67,-4.85 -41.87,-14.55 -10.19,-9.7 -15.29,-24 -15.29,-42.9l0 -75.86 24.06 0 0 73.12c0,12.77 3.09,22.43 9.28,28.98 6.19,6.55 15.04,9.82 26.57,9.82 12.7,0 22.73,-3.81 30.08,-11.44 7.35,-7.63 11.03,-18.41 11.03,-32.33l0 -68.15 24.06 0zm116.81 -1.24c16.87,0 30.29,4.85 40.23,14.55 9.94,9.7 14.91,23.92 14.91,42.65l0 75.86 -24.07 0 0 -73.12c0,-12.77 -3.09,-22.38 -9.27,-28.85 -6.19,-6.46 -15.04,-9.7 -26.57,-9.7 -13.04,0 -23.31,3.77 -30.83,11.32 -7.52,7.54 -11.28,18.36 -11.28,32.46l0 67.9 -24.06 0 0 -184.54 24.06 0 0 71.38c5.02,-6.3 11.57,-11.19 19.68,-14.67 8.11,-3.48 17.17,-5.22 27.2,-5.22zm148.15 0c18.38,0 32.46,4.48 42.24,13.43 9.78,8.95 14.66,22.3 14.66,40.04l0 79.59 -22.81 0 0 -17.41c-4.01,6.13 -9.74,10.82 -17.17,14.05 -7.44,3.23 -16.25,4.85 -26.44,4.85 -14.88,0 -26.78,-3.56 -35.72,-10.69 -8.94,-7.13 -13.41,-16.5 -13.41,-28.11 0,-11.61 4.26,-20.93 12.78,-27.98 8.52,-7.05 22.06,-10.57 40.61,-10.57l38.11 0 0 -4.72c0,-10.28 -3.01,-18.16 -9.02,-23.63 -6.02,-5.47 -14.87,-8.21 -26.57,-8.21 -7.85,0 -15.54,1.28 -23.06,3.85 -7.52,2.57 -13.87,6.01 -19.05,10.32l-10.03 -17.91c6.85,-5.47 15.04,-9.66 24.57,-12.56 9.53,-2.9 19.64,-4.35 30.33,-4.35zm-5.52 116.15c9.19,0 17.13,-2.03 23.81,-6.09 6.69,-4.06 11.53,-9.82 14.54,-17.28l0 -18.41 -37.1 0c-20.39,0 -30.58,6.8 -30.58,20.39 0,6.63 2.59,11.86 7.77,15.67 5.18,3.81 12.37,5.72 21.56,5.72zm273.23 -116.15c16.71,0 29.96,4.81 39.73,14.43 9.78,9.62 14.67,23.88 14.67,42.78l0 75.86 -24.07 0 0 -73.12c0,-12.77 -2.96,-22.38 -8.9,-28.85 -5.93,-6.46 -14.41,-9.7 -25.44,-9.7 -12.2,0 -21.89,3.77 -29.08,11.32 -7.19,7.54 -10.78,18.36 -10.78,32.46l0 67.9 -24.06 0 0 -73.12c0,-12.77 -2.97,-22.38 -8.9,-28.85 -5.93,-6.46 -14.41,-9.7 -25.44,-9.7 -12.2,0 -21.89,3.77 -29.08,11.32 -7.19,7.54 -10.78,18.36 -10.78,32.46l0 67.9 -24.06 0 0 -131.82 23.06 0 0 19.65c4.85,-6.8 11.2,-11.98 19.05,-15.54 7.85,-3.57 16.8,-5.35 26.82,-5.35 10.36,0 19.55,2.07 27.57,6.22 8.02,4.15 14.21,10.2 18.55,18.15 5.02,-7.63 11.99,-13.59 20.93,-17.91 8.94,-4.31 19.01,-6.47 30.2,-6.47zm264.96 0c16.71,0 29.96,4.81 39.73,14.43 9.78,9.62 14.67,23.88 14.67,42.78l0 75.86 -24.07 0 0 -73.12c0,-12.77 -2.96,-22.38 -8.89,-28.85 -5.93,-6.46 -14.42,-9.7 -25.44,-9.7 -12.2,0 -21.89,3.77 -29.08,11.32 -7.19,7.54 -10.78,18.36 -10.78,32.46l0 67.9 -24.06 0 0 -73.12c0,-12.77 -2.97,-22.38 -8.9,-28.85 -5.93,-6.46 -14.42,-9.7 -25.44,-9.7 -12.2,0 -21.89,3.77 -29.08,11.32 -7.19,7.54 -10.78,18.36 -10.78,32.46l0 67.9 -24.06 0 0 -131.82 23.06 0 0 19.65c4.84,-6.8 11.19,-11.98 19.05,-15.54 7.85,-3.57 16.79,-5.35 26.82,-5.35 10.36,0 19.56,2.07 27.57,6.22 8.02,4.15 14.2,10.2 18.55,18.15 5.02,-7.63 11.99,-13.59 20.93,-17.91 8.94,-4.31 19.01,-6.47 30.2,-6.47zm219.59 67.9c0,1.82 -0.17,4.23 -0.5,7.21l-107.79 0c1.5,11.61 6.64,20.93 15.42,27.98 8.77,7.05 19.68,10.57 32.71,10.57 15.87,0 28.66,-5.31 38.35,-15.92l13.28 15.42c-6.01,6.96 -13.49,12.27 -22.43,15.92 -8.94,3.65 -18.93,5.47 -29.96,5.47 -14.04,0 -26.49,-2.86 -37.35,-8.58 -10.86,-5.72 -19.26,-13.72 -25.19,-24 -5.93,-10.28 -8.9,-21.89 -8.9,-34.82 0,-12.77 2.89,-24.29 8.65,-34.57 5.76,-10.28 13.7,-18.28 23.81,-24 10.11,-5.72 21.52,-8.58 34.22,-8.58 12.7,0 24.02,2.86 33.96,8.58 9.94,5.72 17.72,13.72 23.31,24 5.6,10.28 8.4,22.05 8.4,35.32zm-65.68 -47.76c-11.53,0 -21.18,3.48 -28.95,10.45 -7.77,6.96 -12.32,16.08 -13.66,27.36l85.23 0c-1.34,-11.11 -5.89,-20.19 -13.67,-27.24 -7.77,-7.05 -17.42,-10.57 -28.95,-10.57zm224.35 -71.63l0 184.54 -23.06 0 0 -20.89c-5.35,7.3 -12.11,12.85 -20.31,16.67 -8.19,3.81 -17.21,5.72 -27.07,5.72 -12.87,0 -24.4,-2.82 -34.59,-8.46 -10.19,-5.64 -18.17,-13.56 -23.94,-23.75 -5.76,-10.2 -8.65,-21.93 -8.65,-35.19 0,-13.26 2.89,-24.95 8.65,-35.07 5.77,-10.11 13.75,-17.99 23.94,-23.63 10.19,-5.64 21.72,-8.46 34.59,-8.46 9.52,0 18.3,1.78 26.32,5.35 8.02,3.56 14.7,8.83 20.06,15.79l0 -72.62 24.06 0zm-68.43 165.15c8.35,0 15.96,-1.95 22.81,-5.85 6.85,-3.9 12.2,-9.37 16.04,-16.41 3.84,-7.05 5.76,-15.13 5.76,-24.25 0,-9.12 -1.93,-17.2 -5.76,-24.25 -3.85,-7.05 -9.19,-12.48 -16.04,-16.29 -6.85,-3.81 -14.46,-5.72 -22.81,-5.72 -8.52,0 -16.17,1.91 -22.94,5.72 -6.77,3.81 -12.12,9.24 -16.04,16.29 -3.93,7.05 -5.89,15.13 -5.89,24.25 0,9.12 1.96,17.2 5.89,24.25 3.93,7.04 9.28,12.52 16.04,16.41 6.77,3.9 14.41,5.85 22.94,5.85zm236.13 21.39c-13.2,0 -25.94,-2.03 -38.22,-6.09 -12.29,-4.06 -21.94,-9.33 -28.96,-15.8l9.28 -19.4c6.69,5.97 15.25,10.82 25.7,14.55 10.44,3.73 21.18,5.6 32.21,5.6 14.54,0 25.4,-2.45 32.59,-7.34 7.19,-4.89 10.78,-11.4 10.78,-19.52 0,-5.97 -1.96,-10.82 -5.89,-14.55 -3.93,-3.73 -8.77,-6.59 -14.54,-8.58 -5.76,-1.99 -13.91,-4.23 -24.44,-6.72 -13.2,-3.15 -23.86,-6.3 -31.96,-9.45 -8.11,-3.15 -15.04,-8 -20.8,-14.55 -5.76,-6.55 -8.65,-15.38 -8.65,-26.49 0,-9.28 2.46,-17.66 7.39,-25.12 4.93,-7.46 12.41,-13.43 22.44,-17.91 10.03,-4.48 22.48,-6.71 37.35,-6.71 10.37,0 20.56,1.32 30.59,3.98 10.02,2.65 18.63,6.47 25.81,11.44l-8.27 19.9c-7.35,-4.64 -15.21,-8.17 -23.57,-10.57 -8.35,-2.4 -16.54,-3.61 -24.57,-3.61 -14.2,0 -24.85,2.57 -31.96,7.71 -7.1,5.14 -10.65,11.77 -10.65,19.89 0,5.97 2,10.82 6.02,14.55 4.01,3.73 8.98,6.63 14.91,8.7 5.93,2.07 14,4.27 24.19,6.59 13.2,3.15 23.82,6.3 31.83,9.45 8.02,3.15 14.92,7.96 20.69,14.43 5.76,6.46 8.65,15.17 8.65,26.11 0,9.12 -2.5,17.45 -7.52,25 -5.01,7.54 -12.62,13.51 -22.81,17.91 -10.19,4.39 -22.72,6.59 -37.6,6.59zm283.76 -45.51l-93.25 0 -19.3 43.52 -25.82 0 79.46 -174.1 24.82 0 79.71 174.1 -26.32 0 -19.3 -43.52zm-8.78 -19.9l-37.85 -85.31 -37.85 85.31 75.7 0zm76.96 -121.12l24.06 0 0 184.54 -24.06 0 0 -184.54zm118.31 51.48c18.39,0 32.46,4.48 42.24,13.43 9.78,8.95 14.66,22.3 14.66,40.04l0 79.59 -22.81 0 0 -17.41c-4.01,6.13 -9.74,10.82 -17.17,14.05 -7.44,3.23 -16.25,4.85 -26.44,4.85 -14.87,0 -26.78,-3.56 -35.72,-10.69 -8.94,-7.13 -13.41,-16.5 -13.41,-28.11 0,-11.61 4.26,-20.93 12.78,-27.98 8.52,-7.05 22.06,-10.57 40.61,-10.57l38.1 0 0 -4.72c0,-10.28 -3.01,-18.16 -9.02,-23.63 -6.02,-5.47 -14.87,-8.21 -26.57,-8.21 -7.85,0 -15.54,1.28 -23.06,3.85 -7.52,2.57 -13.87,6.01 -19.05,10.32l-10.03 -17.91c6.85,-5.47 15.04,-9.66 24.57,-12.56 9.53,-2.9 19.64,-4.35 30.33,-4.35zm-5.52 116.15c9.19,0 17.13,-2.03 23.81,-6.09 6.69,-4.06 11.53,-9.82 14.54,-17.28l0 -18.41 -37.1 0c-20.39,0 -30.58,6.8 -30.58,20.39 0,6.63 2.59,11.86 7.77,15.67 5.19,3.81 12.37,5.72 21.56,5.72zm177.98 -116.15c16.87,0 30.29,4.85 40.23,14.55 9.94,9.7 14.91,23.92 14.91,42.65l0 75.86 -24.07 0 0 -73.12c0,-12.77 -3.09,-22.38 -9.27,-28.85 -6.19,-6.46 -15.04,-9.7 -26.57,-9.7 -13.04,0 -23.31,3.77 -30.83,11.32 -7.52,7.54 -11.28,18.36 -11.28,32.46l0 67.9 -24.06 0 0 -131.82 23.06 0 0 19.9c4.84,-6.8 11.4,-12.02 19.68,-15.67 8.27,-3.65 17.67,-5.47 28.2,-5.47zm148.15 0c18.38,0 32.46,4.48 42.24,13.43 9.78,8.95 14.66,22.3 14.66,40.04l0 79.59 -22.81 0 0 -17.41c-4.01,6.13 -9.74,10.82 -17.17,14.05 -7.44,3.23 -16.25,4.85 -26.44,4.85 -14.88,0 -26.78,-3.56 -35.72,-10.69 -8.94,-7.13 -13.41,-16.5 -13.41,-28.11 0,-11.61 4.26,-20.93 12.78,-27.98 8.52,-7.05 22.06,-10.57 40.61,-10.57l38.11 0 0 -4.72c0,-10.28 -3.01,-18.16 -9.02,-23.63 -6.02,-5.47 -14.87,-8.21 -26.57,-8.21 -7.85,0 -15.54,1.28 -23.06,3.85 -7.52,2.57 -13.87,6.01 -19.05,10.32l-10.03 -17.91c6.85,-5.47 15.04,-9.66 24.57,-12.56 9.53,-2.9 19.64,-4.35 30.33,-4.35zm-5.52 116.15c9.19,0 17.13,-2.03 23.81,-6.09 6.69,-4.06 11.53,-9.82 14.54,-17.28l0 -18.41 -37.1 0c-20.39,0 -30.58,6.8 -30.58,20.39 0,6.63 2.59,11.86 7.77,15.67 5.18,3.81 12.37,5.72 21.56,5.72zm205.55 -2.74l0 19.65 -111.3 0 0 -15.42 78.46 -96.75 -76.96 0 0 -19.65 107.79 0 0 15.67 -78.46 96.5 80.47 0zm32.09 -112.17l24.06 0 0 131.82 -24.06 0 0 -131.82zm12.03 -25.37c-4.68,0 -8.56,-1.49 -11.65,-4.48 -3.09,-2.99 -4.64,-6.63 -4.64,-10.94 0,-4.31 1.54,-8 4.64,-11.07 3.09,-3.07 6.98,-4.6 11.65,-4.6 4.68,0 8.56,1.45 11.66,4.35 3.09,2.9 4.63,6.51 4.63,10.82 0,4.48 -1.54,8.25 -4.63,11.31 -3.09,3.07 -6.98,4.6 -11.66,4.6zm207.31 159.17c-17.55,0 -33.38,-3.85 -47.5,-11.56 -14.12,-7.71 -25.19,-18.32 -33.21,-31.83 -8.02,-13.52 -12.03,-28.73 -12.03,-45.64 0,-16.91 4.01,-32.12 12.03,-45.64 8.02,-13.51 19.13,-24.13 33.34,-31.83 14.2,-7.71 30.07,-11.56 47.62,-11.56 13.71,0 26.24,2.28 37.6,6.84 11.37,4.56 21.06,11.31 29.08,20.27l-16.3 15.67c-13.2,-13.76 -29.66,-20.64 -49.38,-20.64 -13.04,0 -24.81,2.9 -35.34,8.7 -10.53,5.8 -18.76,13.8 -24.69,24 -5.93,10.2 -8.9,21.6 -8.9,34.2 0,12.6 2.96,24 8.9,34.2 5.93,10.2 14.17,18.2 24.69,24 10.53,5.8 22.31,8.7 35.34,8.7 19.56,0 36.02,-6.96 49.38,-20.89l16.3 15.67c-8.02,8.96 -17.76,15.75 -29.2,20.4 -11.45,4.64 -24.02,6.96 -37.73,6.96zm150.65 -0.5c-13.2,0 -25.07,-2.9 -35.6,-8.7 -10.53,-5.8 -18.76,-13.8 -24.69,-24 -5.93,-10.2 -8.9,-21.76 -8.9,-34.7 0,-12.93 2.97,-24.5 8.9,-34.69 5.93,-10.2 14.16,-18.16 24.69,-23.88 10.53,-5.72 22.4,-8.58 35.6,-8.58 13.2,0 25.03,2.86 35.47,8.58 10.44,5.72 18.63,13.68 24.56,23.88 5.93,10.2 8.9,21.76 8.9,34.69 0,12.93 -2.97,24.5 -8.9,34.7 -5.93,10.2 -14.12,18.2 -24.56,24 -10.44,5.8 -22.27,8.7 -35.47,8.7zm0 -20.89c8.52,0 16.17,-1.95 22.94,-5.85 6.77,-3.9 12.07,-9.37 15.92,-16.41 3.84,-7.05 5.77,-15.13 5.77,-24.25 0,-9.12 -1.93,-17.2 -5.77,-24.25 -3.84,-7.05 -9.15,-12.48 -15.92,-16.29 -6.77,-3.81 -14.41,-5.72 -22.94,-5.72 -8.52,0 -16.17,1.91 -22.93,5.72 -6.77,3.81 -12.12,9.24 -16.04,16.29 -3.93,7.05 -5.89,15.13 -5.89,24.25 0,9.12 1.96,17.2 5.89,24.25 3.92,7.04 9.27,12.52 16.04,16.41 6.76,3.9 14.41,5.85 22.93,5.85zm173.22 -113.67c16.88,0 30.29,4.85 40.23,14.55 9.94,9.7 14.92,23.92 14.92,42.65l0 75.86 -24.07 0 0 -73.12c0,-12.77 -3.09,-22.38 -9.27,-28.85 -6.19,-6.46 -15.04,-9.7 -26.57,-9.7 -13.04,0 -23.31,3.77 -30.83,11.32 -7.52,7.54 -11.28,18.36 -11.28,32.46l0 67.9 -24.06 0 0 -131.82 23.06 0 0 19.9c4.85,-6.8 11.41,-12.02 19.68,-15.67 8.27,-3.65 17.67,-5.47 28.2,-5.47zm174.47 125.35c-3.51,2.98 -7.85,5.26 -13.04,6.84 -5.18,1.57 -10.53,2.36 -16.04,2.36 -13.37,0 -23.73,-3.56 -31.08,-10.69 -7.35,-7.13 -11.03,-17.33 -11.03,-30.59l0 -72.37 -22.56 0 0 -19.65 22.56 0 0 -28.85 24.07 0 0 28.85 38.1 0 0 19.65 -38.1 0 0 71.38c0,7.13 1.8,12.6 5.39,16.41 3.59,3.81 8.73,5.72 15.42,5.72 7.35,0 13.62,-2.07 18.8,-6.22l7.52 17.16zm52.14 -101.97c4.18,-7.63 10.36,-13.43 18.55,-17.41 8.19,-3.98 18.13,-5.97 29.83,-5.97l0 23.13c-1.34,-0.17 -3.18,-0.25 -5.52,-0.25 -13.04,0 -23.27,3.86 -30.7,11.57 -7.44,7.71 -11.16,18.69 -11.16,32.95l0 65.66 -24.06 0 0 -131.82 23.06 0 0 22.14zm126.09 -23.38c18.38,0 32.46,4.48 42.24,13.43 9.78,8.95 14.66,22.3 14.66,40.04l0 79.59 -22.81 0 0 -17.41c-4.01,6.13 -9.74,10.82 -17.17,14.05 -7.44,3.23 -16.25,4.85 -26.44,4.85 -14.88,0 -26.78,-3.56 -35.72,-10.69 -8.94,-7.13 -13.41,-16.5 -13.41,-28.11 0,-11.61 4.26,-20.93 12.78,-27.98 8.52,-7.05 22.06,-10.57 40.61,-10.57l38.11 0 0 -4.72c0,-10.28 -3.01,-18.16 -9.02,-23.63 -6.02,-5.47 -14.87,-8.21 -26.57,-8.21 -7.85,0 -15.54,1.28 -23.06,3.85 -7.52,2.57 -13.87,6.01 -19.05,10.32l-10.03 -17.91c6.85,-5.47 15.04,-9.66 24.57,-12.56 9.53,-2.9 19.64,-4.35 30.33,-4.35zm-5.52 116.15c9.19,0 17.13,-2.03 23.81,-6.09 6.69,-4.06 11.53,-9.82 14.54,-17.28l0 -18.41 -37.1 0c-20.39,0 -30.58,6.8 -30.58,20.39 0,6.63 2.59,11.86 7.77,15.67 5.18,3.81 12.37,5.72 21.56,5.72zm165.7 18.41c-13.54,0 -25.61,-2.9 -36.22,-8.7 -10.61,-5.8 -18.92,-13.8 -24.94,-24 -6.02,-10.2 -9.02,-21.76 -9.02,-34.7 0,-12.93 3.01,-24.5 9.02,-34.69 6.02,-10.2 14.33,-18.16 24.94,-23.88 10.61,-5.72 22.69,-8.58 36.22,-8.58 12.03,0 22.77,2.41 32.21,7.21 9.44,4.81 16.75,11.78 21.94,20.89l-18.3 11.69c-4.17,-6.3 -9.35,-11.03 -15.54,-14.18 -6.19,-3.15 -13.03,-4.72 -20.55,-4.72 -8.69,0 -16.5,1.91 -23.44,5.72 -6.94,3.81 -12.37,9.24 -16.29,16.29 -3.93,7.05 -5.89,15.13 -5.89,24.25 0,9.29 1.96,17.45 5.89,24.5 3.92,7.05 9.35,12.48 16.29,16.29 6.94,3.81 14.75,5.72 23.44,5.72 7.52,0 14.37,-1.58 20.55,-4.73 6.19,-3.15 11.37,-7.87 15.54,-14.18l18.3 11.44c-5.19,9.12 -12.49,16.13 -21.94,21.02 -9.44,4.89 -20.18,7.34 -32.21,7.34zm161.68 -9.2c-3.51,2.98 -7.85,5.26 -13.04,6.84 -5.18,1.57 -10.52,2.36 -16.04,2.36 -13.37,0 -23.73,-3.56 -31.08,-10.69 -7.35,-7.13 -11.03,-17.33 -11.03,-30.59l0 -72.37 -22.56 0 0 -19.65 22.56 0 0 -28.85 24.07 0 0 28.85 38.1 0 0 19.65 -38.1 0 0 71.38c0,7.13 1.8,12.6 5.39,16.41 3.59,3.81 8.74,5.72 15.42,5.72 7.35,0 13.62,-2.07 18.8,-6.22l7.52 17.16zm29.08 -124.11l24.06 0 0 131.82 -24.06 0 0 -131.82zm12.03 -25.37c-4.68,0 -8.56,-1.49 -11.65,-4.48 -3.09,-2.99 -4.64,-6.63 -4.64,-10.94 0,-4.31 1.54,-8 4.64,-11.07 3.09,-3.07 6.98,-4.6 11.65,-4.6 4.68,0 8.56,1.45 11.66,4.35 3.09,2.9 4.63,6.51 4.63,10.82 0,4.48 -1.54,8.25 -4.63,11.31 -3.09,3.07 -6.98,4.6 -11.66,4.6zm128.85 24.12c16.87,0 30.29,4.85 40.23,14.55 9.94,9.7 14.92,23.92 14.92,42.65l0 75.86 -24.07 0 0 -73.12c0,-12.77 -3.09,-22.38 -9.28,-28.85 -6.19,-6.46 -15.04,-9.7 -26.57,-9.7 -13.03,0 -23.31,3.77 -30.83,11.32 -7.52,7.54 -11.28,18.36 -11.28,32.46l0 67.9 -24.06 0 0 -131.82 23.06 0 0 19.9c4.84,-6.8 11.41,-12.02 19.68,-15.67 8.27,-3.65 17.67,-5.47 28.2,-5.47zm227.61 1.24l0 113.91c0,23.05 -5.76,40.08 -17.29,51.11 -11.53,11.02 -28.74,16.54 -51.64,16.54 -12.54,0 -24.48,-1.7 -35.85,-5.1 -11.37,-3.4 -20.56,-8.25 -27.57,-14.55l11.53 -18.41c6.18,5.31 13.83,9.49 22.94,12.56 9.11,3.07 18.51,4.6 28.2,4.6 15.54,0 27.03,-3.65 34.47,-10.94 7.44,-7.3 11.15,-18.4 11.15,-33.33l0 -10.44c-5.68,6.8 -12.66,11.9 -20.93,15.3 -8.28,3.4 -17.26,5.1 -26.95,5.1 -12.7,0 -24.19,-2.69 -34.46,-8.08 -10.28,-5.39 -18.35,-12.93 -24.19,-22.63 -5.85,-9.7 -8.78,-20.77 -8.78,-33.2 0,-12.44 2.93,-23.5 8.78,-33.2 5.85,-9.7 13.91,-17.2 24.19,-22.51 10.28,-5.31 21.76,-7.96 34.46,-7.96 10.03,0 19.35,1.83 27.95,5.47 8.61,3.65 15.67,9.04 21.18,16.17l0 -20.39 22.81 0zm-69.18 105.46c8.69,0 16.5,-1.83 23.43,-5.47 6.94,-3.65 12.37,-8.75 16.3,-15.3 3.92,-6.55 5.89,-13.97 5.89,-22.26 0,-12.77 -4.26,-23.09 -12.78,-30.96 -8.52,-7.88 -19.47,-11.81 -32.83,-11.81 -13.54,0 -24.57,3.94 -33.09,11.81 -8.52,7.87 -12.78,18.2 -12.78,30.96 0,8.29 1.96,15.71 5.89,22.26 3.93,6.55 9.36,11.65 16.3,15.3 6.93,3.65 14.83,5.47 23.69,5.47zm313.34 4.72l0 21.64 -127.34 0 0 -174.1 123.83 0 0 21.64 -98.77 0 0 53.47 87.99 0 0 21.14 -87.99 0 0 56.21 102.28 0z"/>
   <path class="fil1" d="M8717.85 1276.52c-10.86,0 -21.31,-1.45 -31.33,-4.35 -10.03,-2.91 -17.88,-6.59 -23.56,-11.07l10.03 -18.9c5.85,4.15 12.95,7.46 21.31,9.95 8.36,2.49 16.8,3.73 25.32,3.73 21.06,0 31.58,-5.97 31.58,-17.91 0,-3.98 -1.42,-7.13 -4.26,-9.45 -2.84,-2.32 -6.39,-4.02 -10.65,-5.1 -4.26,-1.08 -10.32,-2.28 -18.17,-3.61 -10.7,-1.66 -19.43,-3.57 -26.19,-5.72 -6.77,-2.16 -12.58,-5.8 -17.43,-10.94 -4.85,-5.14 -7.27,-12.35 -7.27,-21.64 0,-11.94 5.02,-21.52 15.04,-28.73 10.03,-7.21 23.48,-10.82 40.36,-10.82 8.85,0 17.72,1.08 26.57,3.24 8.86,2.15 16.13,5.06 21.81,8.7l-10.28 18.9c-10.86,-6.96 -23.65,-10.44 -38.35,-10.44 -10.19,0 -17.96,1.66 -23.31,4.97 -5.35,3.31 -8.02,7.71 -8.02,13.18 0,4.31 1.5,7.71 4.51,10.2 3.01,2.49 6.72,4.31 11.15,5.47 4.43,1.16 10.65,2.49 18.67,3.98 10.7,1.82 19.34,3.77 25.95,5.84 6.6,2.07 12.24,5.6 16.92,10.57 4.68,4.98 7.02,11.94 7.02,20.89 0,11.94 -5.14,21.43 -15.41,28.48 -10.28,7.05 -24.28,10.57 -41.99,10.57zm162.19 -9.2c-3.51,2.98 -7.85,5.26 -13.04,6.84 -5.18,1.57 -10.53,2.36 -16.04,2.36 -13.37,0 -23.73,-3.56 -31.08,-10.69 -7.35,-7.13 -11.03,-17.33 -11.03,-30.59l0 -72.37 -22.56 0 0 -19.65 22.56 0 0 -28.85 24.07 0 0 28.85 38.1 0 0 19.65 -38.1 0 0 71.38c0,7.13 1.8,12.6 5.39,16.41 3.59,3.81 8.74,5.72 15.42,5.72 7.35,0 13.62,-2.07 18.8,-6.22l7.52 17.16zm37.35 9.2c-4.68,0 -8.69,-1.62 -12.03,-4.85 -3.34,-3.23 -5.01,-7.33 -5.01,-12.31 0,-4.81 1.67,-8.83 5.01,-12.06 3.34,-3.23 7.35,-4.85 12.03,-4.85 4.68,0 8.61,1.57 11.78,4.73 3.17,3.15 4.76,7.21 4.76,12.19 0,4.98 -1.63,9.08 -4.89,12.31 -3.26,3.23 -7.15,4.85 -11.66,4.85z"/>
  </g>
  <rect class="fil2" x="1795.66" y="204.35" width="21.3" height="1300.16"/>
  <path class="fil3" d="M145.64 550.97c-8.39,45.63 -5.02,426.35 3.89,470.94 27.94,139.92 131.64,193.92 289.28,194.16 155.78,0.24 264.39,-51.37 291.1,-193.03 9.62,-51.01 13.2,-423.04 4.03,-472.92l-197.49 0.59c-5.77,93.61 -0.79,203.51 -0.77,298.92 0.02,94.3 14.45,205.58 -96.96,203.61 -110.77,-1.96 -94.72,-115.91 -94.72,-209.2 0,-65.66 8.21,-240.93 -2.43,-293.89l-195.94 0.81z"/>
  <path class="fil4" d="M907.78 28.91c-23.29,23.45 -155.85,263.69 -182.67,312.39l75.74 1.82 0.61 221.81c0.01,134.63 -15.99,364.62 32.04,470.31 19.39,42.68 46.65,102.63 97.11,110.63 108.3,17.16 260.81,-24.87 311.26,-93.62 -76.98,14 -120.69,12.93 -174.79,-32.56 -44.23,-37.2 -66.45,-80.07 -66.46,-164.45 -0.01,-63.63 -6.18,-481.74 5,-512.47l80.7 -1.51c-14.79,-36.22 -148.82,-262.2 -178.55,-312.33z"/>
  <path class="fil3" d="M1042.19 761.69c26.77,-10.31 31.32,-43.19 104.3,-57.69 49.47,-9.83 93.47,3.11 129.28,23.61 59.7,34.17 110.69,124.7 71.62,221.24 -63.65,157.28 -221.52,247.26 -395.92,230.87 27.78,36.91 112.84,68.6 174.07,77.12 370.61,51.54 594.66,-406.01 298.98,-667.18 -80.14,-70.79 -251.67,-122.58 -381.59,-62.02l-0.73 234.05z"/>
  <path class="fil3" d="M801.69 1670.7c34.95,-18.34 75.33,-60.26 109.21,-86.37 56.91,-43.87 89.1,-57.54 89.05,-103.86l0.55 -218.78c-44.46,-12.31 -79.88,-42.23 -112.48,-68.42 -46.59,-37.43 -61.97,-69.83 -86.43,-92.87l0.1 570.31z"/>
 </g>
</svg>
